<svg xmlns="http://www.w3.org/2000/svg" viewBox="0 0 200 200"><defs><clipPath id="c"><path d="M23.607 0H138.197A23.607 23.607 0 0 1 161.803 23.607V138.197A23.607 23.607 0 0 1 138.197 161.803H23.607A23.607 23.607 0 0 1 0 138.197V23.607A23.607 23.607 0 0 1 23.607 0Z"/></clipPath></defs><path d="M23.607 0H138.197A23.607 23.607 0 0 1 161.803 23.607V138.197A23.607 23.607 0 0 1 138.197 161.803H23.607A23.607 23.607 0 0 1 0 138.197V23.607A23.607 23.607 0 0 1 23.607 0Z" fill="#1F4E5F"/><path d="M114.59 100H185.41A14.59 14.59 0 0 1 200 114.59V185.41A14.59 14.59 0 0 1 185.41 200H114.59A14.59 14.59 0 0 1 100 185.41V114.59A14.59 14.59 0 0 1 114.59 100Z" fill="#A87B2F"/><path d="M114.59 100H185.41A14.59 14.59 0 0 1 200 114.59V185.41A14.59 14.59 0 0 1 185.41 200H114.59A14.59 14.59 0 0 1 100 185.41V114.59A14.59 14.59 0 0 1 114.59 100Z" fill="#0F2A33" clip-path="url(#c)"/></svg>